<svg xmlns="http://www.w3.org/2000/svg" viewBox="0 0 1600 1000">
<rect width="1600" height="1000" fill="#ebe8e1"/>
<text x="100" y="150" font-family="Georgia,serif" font-size="56" fill="#4a2f72">DATA + DIGITAL PRODUCT</text>
<text x="100" y="300" font-family="Georgia,serif" font-size="120" fill="#18161b">The Inaugural 60</text>
<g fill="#4a2f72" opacity=".86">
<circle cx="150" cy="460" r="38"/>
<circle cx="285" cy="460" r="38"/>
<circle cx="420" cy="460" r="38"/>
<circle cx="555" cy="460" r="38"/>
<circle cx="690" cy="460" r="38"/>
<circle cx="825" cy="460" r="38"/>
<circle cx="960" cy="460" r="38"/>
<circle cx="1095" cy="460" r="38"/>
<circle cx="1230" cy="460" r="38"/>
<circle cx="1365" cy="460" r="38"/>
<circle cx="150" cy="575" r="38"/>
<circle cx="285" cy="575" r="38"/>
<circle cx="420" cy="575" r="38"/>
<circle cx="555" cy="575" r="38"/>
<circle cx="690" cy="575" r="38"/>
<circle cx="825" cy="575" r="38"/>
<circle cx="960" cy="575" r="38"/>
<circle cx="1095" cy="575" r="38"/>
<circle cx="1230" cy="575" r="38"/>
<circle cx="1365" cy="575" r="38"/>
<circle cx="150" cy="690" r="38"/>
<circle cx="285" cy="690" r="38"/>
<circle cx="420" cy="690" r="38"/>
<circle cx="555" cy="690" r="38"/>
<circle cx="690" cy="690" r="38"/>
<circle cx="825" cy="690" r="38"/>
<circle cx="960" cy="690" r="38"/>
<circle cx="1095" cy="690" r="38"/>
<circle cx="1230" cy="690" r="38"/>
<circle cx="1365" cy="690" r="38"/>
<circle cx="150" cy="805" r="38"/>
<circle cx="285" cy="805" r="38"/>
<circle cx="420" cy="805" r="38"/>
<circle cx="555" cy="805" r="38"/>
<circle cx="690" cy="805" r="38"/>
<circle cx="825" cy="805" r="38"/>
<circle cx="960" cy="805" r="38"/>
<circle cx="1095" cy="805" r="38"/>
<circle cx="1230" cy="805" r="38"/>
<circle cx="1365" cy="805" r="38"/>
<circle cx="150" cy="920" r="38"/>
<circle cx="285" cy="920" r="38"/>
<circle cx="420" cy="920" r="38"/>
<circle cx="555" cy="920" r="38"/>
<circle cx="690" cy="920" r="38"/>
<circle cx="825" cy="920" r="38"/>
<circle cx="960" cy="920" r="38"/>
<circle cx="1095" cy="920" r="38"/>
<circle cx="1230" cy="920" r="38"/>
<circle cx="1365" cy="920" r="38"/>
<circle cx="150" cy="1035" r="38"/>
<circle cx="285" cy="1035" r="38"/>
<circle cx="420" cy="1035" r="38"/>
<circle cx="555" cy="1035" r="38"/>
<circle cx="690" cy="1035" r="38"/>
<circle cx="825" cy="1035" r="38"/>
<circle cx="960" cy="1035" r="38"/>
<circle cx="1095" cy="1035" r="38"/>
<circle cx="1230" cy="1035" r="38"/>
<circle cx="1365" cy="1035" r="38"/>
</g>
</svg>
